<svg width="24" height="25" viewBox="0 0 24 25" fill="none" xmlns="http://www.w3.org/2000/svg">
<g clip-path="url(#clip0_1_58)">
<path d="M12 9.5C12.55 9.5 13 9.05 13 8.5V6.5H15C15.55 6.5 16 6.05 16 5.5C16 4.95 15.55 4.5 15 4.5H13V2.5C13 1.95 12.55 1.5 12 1.5C11.45 1.5 11 1.95 11 2.5V4.5H9C8.45 4.5 8 4.95 8 5.5C8 6.05 8.45 6.5 9 6.5H11V8.5C11 9.05 11.45 9.5 12 9.5ZM7 18.5C5.9 18.5 5.01 19.4 5.01 20.5C5.01 21.6 5.9 22.5 7 22.5C8.1 22.5 9 21.6 9 20.5C9 19.4 8.1 18.5 7 18.5ZM17 18.5C15.9 18.5 15.01 19.4 15.01 20.5C15.01 21.6 15.9 22.5 17 22.5C18.1 22.5 19 21.6 19 20.5C19 19.4 18.1 18.5 17 18.5ZM8.1 13.5H15.55C16.3 13.5 16.96 13.09 17.3 12.47L20.54 6.33C20.79 5.85 20.62 5.25 20.14 4.99C19.65 4.72 19.04 4.91 18.78 5.4L15.55 11.5H8.53L4.27 2.5H2C1.45 2.5 1 2.95 1 3.5C1 4.05 1.45 4.5 2 4.5H3L6.6 12.09L5.25 14.53C4.52 15.87 5.48 17.5 7 17.5H18C18.55 17.5 19 17.05 19 16.5C19 15.95 18.55 15.5 18 15.5H7L8.1 13.5Z" fill="#004391"/>
</g>
<defs>
<clipPath id="clip0_1_58">
<rect width="24" height="24" fill="white" transform="translate(0 0.5)"/>
</clipPath>
</defs>
</svg>
